<svg width="23" height="23" viewBox="0 0 23 23" fill="none" xmlns="http://www.w3.org/2000/svg">
<g clip-path="url(#clip0_2_236)">
<path d="M16.48 11.7041C16.0573 11.5031 15.6259 11.33 15.187 11.185C16.6085 10.118 17.5298 8.41896 17.5298 6.50879C17.5298 3.28656 14.9083 0.665039 11.686 0.665039C8.46375 0.665039 5.84227 3.28656 5.84227 6.50879C5.84227 8.42107 6.76558 10.1218 8.18978 11.1886C6.8849 11.6182 5.66051 12.2866 4.58887 13.1681C2.62382 14.7844 1.25755 17.039 0.741792 19.5164C0.580144 20.2927 0.773804 21.09 1.27301 21.7039C1.76978 22.3147 2.50639 22.665 3.29392 22.665H13.8774C14.3521 22.665 14.7368 22.2803 14.7368 21.8057C14.7368 21.331 14.3521 20.9463 13.8774 20.9463H3.29392C2.92705 20.9463 2.70572 20.7415 2.60646 20.6195C2.43506 20.4087 2.36872 20.1344 2.42445 19.8667C3.31626 15.5829 7.09476 12.4537 11.4582 12.3482C11.5338 12.3511 11.6097 12.3525 11.686 12.3525C11.7631 12.3525 11.8398 12.351 11.9161 12.3481C13.2533 12.3794 14.5393 12.6846 15.7422 13.2564C16.1709 13.4601 16.6835 13.2779 16.8873 12.8492C17.091 12.4205 16.9087 11.9079 16.48 11.7041ZM11.8956 10.6285C11.8259 10.6273 11.756 10.6266 11.686 10.6266C11.6167 10.6266 11.5473 10.6273 11.478 10.6286C9.29975 10.5199 7.56102 8.7136 7.56102 6.50879C7.56102 4.23424 9.41147 2.38379 11.686 2.38379C13.9606 2.38379 15.811 4.23424 15.811 6.50879C15.811 8.71304 14.0731 10.519 11.8956 10.6285Z" fill="#C605CA"/>
<path d="M21.8267 17.7236H19.4634V15.3604C19.4634 14.8857 19.0786 14.501 18.604 14.501C18.1294 14.501 17.7446 14.8857 17.7446 15.3604V17.7236H15.3813C14.9067 17.7236 14.522 18.1084 14.522 18.583C14.522 19.0576 14.9067 19.4424 15.3813 19.4424H17.7446V21.8057C17.7446 22.2803 18.1294 22.665 18.604 22.665C19.0786 22.665 19.4634 22.2803 19.4634 21.8057V19.4424H21.8267C22.3013 19.4424 22.686 19.0576 22.686 18.583C22.686 18.1084 22.3013 17.7236 21.8267 17.7236Z" fill="#C605CA"/>
</g>
<defs>
<clipPath id="clip0_2_236">
<rect width="22" height="22" fill="white" transform="translate(0.686035 0.665039)"/>
</clipPath>
</defs>
</svg>
