<svg width="23" height="23" viewBox="0 0 23 23" fill="none" xmlns="http://www.w3.org/2000/svg">
<g clip-path="url(#clip0_2_923)">
<path d="M3.48179 3.23818C-0.807025 7.527 -0.807025 14.5057 3.48179 18.7945C7.7706 23.0833 14.7493 23.0833 19.0381 18.7945C23.3269 14.5057 23.3269 7.52699 19.0381 3.23818C14.7493 -1.05063 7.7706 -1.05063 3.48179 3.23818ZM18.0659 17.8223C14.313 21.5751 8.20691 21.5751 4.45406 17.8223C0.701212 14.0694 0.701212 7.9633 4.45406 4.21045C8.20691 0.457608 14.313 0.457607 18.0659 4.21045C21.8187 7.9633 21.8187 14.0694 18.0659 17.8223ZM14.1768 7.41215C14.5567 7.41215 14.8643 7.71975 14.8642 8.09954V12.9609C14.8642 13.1507 14.7872 13.3227 14.6629 13.447C14.5386 13.5714 14.3666 13.6483 14.1768 13.6483C13.7969 13.6483 13.4893 13.3407 13.4894 12.9609L13.4894 9.75921L8.82928 14.4193C8.56081 14.6878 8.12572 14.688 7.85701 14.4193C7.5883 14.1506 7.58854 13.7155 7.85701 13.447L12.5171 8.78694H9.31542C8.9355 8.78694 8.6279 8.47934 8.62802 8.09954C8.62814 7.71975 8.93563 7.41202 9.31542 7.41215L14.1768 7.41215Z" fill="white"/>
</g>
<defs>
<clipPath id="clip0_2_923">
<rect width="22" height="22" fill="white" transform="translate(0.259766 0.0163574)"/>
</clipPath>
</defs>
</svg>
