<svg width="16" height="12" viewBox="0 0 16 12" fill="none" xmlns="http://www.w3.org/2000/svg">
<path d="M15.6736 5.99861L11.1739 0.998877C11.0779 0.892882 10.9439 0.832886 10.8019 0.832886H7.80205C7.60506 0.832886 7.42607 0.94888 7.34507 1.12887C7.26508 1.30986 7.29808 1.52085 7.43007 1.66684L11.6288 6.33259L7.43007 10.9973C7.29808 11.1443 7.26408 11.3553 7.34507 11.5353C7.42607 11.7163 7.60506 11.8323 7.80205 11.8323H10.8019C10.9439 11.8323 11.0779 11.7713 11.1739 11.6673L15.6736 6.66757C15.8446 6.47758 15.8446 6.1876 15.6736 5.99861Z" fill="white"/>
<path d="M9.17387 5.99861L4.67411 0.998877C4.57812 0.892882 4.44412 0.832886 4.30213 0.832886H1.30229C1.1053 0.832886 0.926313 0.94888 0.845318 1.12887C0.765322 1.30986 0.79832 1.52085 0.930313 1.66684L5.12909 6.33259L0.930313 10.9973C0.79832 11.1443 0.764322 11.3553 0.845318 11.5353C0.926313 11.7163 1.1053 11.8323 1.30229 11.8323H4.30213C4.44412 11.8323 4.57812 11.7713 4.67411 11.6673L9.17387 6.66757C9.34486 6.47758 9.34486 6.1876 9.17387 5.99861Z" fill="white"/>
</svg>
