<svg width="15" height="19" viewBox="0 0 15 19" fill="none" xmlns="http://www.w3.org/2000/svg">
<circle cx="7.02832" cy="8.51636" r="7" fill="white"/>
<path d="M7.9763 4.02346L7.81011 10.1343H6.25045L6.08 4.02346H7.9763ZM7.03028 12.8615C6.74903 12.8615 6.50755 12.7621 6.30585 12.5632C6.10414 12.3615 6.00471 12.1201 6.00755 11.8388C6.00471 11.5604 6.10414 11.3218 6.30585 11.1229C6.50755 10.924 6.74903 10.8246 7.03028 10.8246C7.30017 10.8246 7.53738 10.924 7.74193 11.1229C7.94647 11.3218 8.05017 11.5604 8.05301 11.8388C8.05017 12.0263 8.00045 12.1982 7.90386 12.3544C7.81011 12.5078 7.68653 12.6314 7.53312 12.7252C7.37971 12.8161 7.2121 12.8615 7.03028 12.8615Z" fill="#C32772"/>
</svg>
