<svg width="23" height="23" viewBox="0 0 23 23" fill="none" xmlns="http://www.w3.org/2000/svg">
<g clip-path="url(#clip0_2_637)">
<path d="M11.5479 22.9966C17.623 22.9966 22.5479 18.0717 22.5479 11.9966C22.5479 5.92145 17.623 0.996582 11.5479 0.996582C5.47272 0.996582 0.547852 5.92145 0.547852 11.9966C0.547852 18.0717 5.47272 22.9966 11.5479 22.9966Z" fill="#F1B019"/>
<path d="M11.548 7.70502L14.4982 10.6553L16.1077 9.04626L11.548 4.48657L6.98828 9.04626L8.59769 10.6553L11.548 7.70502Z" fill="white"/>
<path d="M11.548 16.288L8.59769 13.3378L6.98828 14.9468L11.548 19.5065L16.1077 14.9468L14.4982 13.3378L11.548 16.288Z" fill="white"/>
<path d="M9.93616 11.9966L11.5454 10.3873L13.1547 11.9966L11.5454 13.6059L9.93616 11.9966Z" fill="white"/>
<path d="M15.8365 11.9972L17.4458 10.3879L19.0551 11.9972L17.4458 13.6065L15.8365 11.9972Z" fill="white"/>
<path d="M4.03638 11.9958L5.64565 10.3866L7.25493 11.9958L5.64565 13.6051L4.03638 11.9958Z" fill="white"/>
</g>
<defs>
<clipPath id="clip0_2_637">
<rect width="22" height="22" fill="white" transform="translate(0.547852 0.996582)"/>
</clipPath>
</defs>
</svg>
