<svg width="19" height="19" viewBox="0 0 19 19" fill="none" xmlns="http://www.w3.org/2000/svg">
<g clip-path="url(#clip0_2_212)">
<path d="M12.4089 11.076L9.89918 9.19372V5.3595C9.89918 4.97398 9.58756 4.66235 9.20203 4.66235C8.81651 4.66235 8.50488 4.97398 8.50488 5.3595V9.54233C8.50488 9.76191 8.60807 9.96898 8.78374 10.1L11.5723 12.1915C11.6977 12.2856 11.8442 12.3309 11.9899 12.3309C12.2025 12.3309 12.4116 12.2354 12.5483 12.0513C12.7798 11.7438 12.717 11.3067 12.4089 11.076Z" fill="white"/>
<path d="M9.20215 0.486572C4.23925 0.486572 0.202148 4.52367 0.202148 9.48657C0.202148 14.4495 4.23925 18.4866 9.20215 18.4866C14.1651 18.4866 18.2021 14.4495 18.2021 9.48657C18.2021 4.52367 14.1651 0.486572 9.20215 0.486572ZM9.20215 17.0923C5.00889 17.0923 1.59641 13.6798 1.59641 9.48657C1.59641 5.29331 5.00889 1.88083 9.20215 1.88083C13.3961 1.88083 16.8079 5.29331 16.8079 9.48657C16.8079 13.6798 13.3954 17.0923 9.20215 17.0923Z" fill="white"/>
</g>
<defs>
<clipPath id="clip0_2_212">
<rect width="18" height="18" fill="white" transform="translate(0.202148 0.486572)"/>
</clipPath>
</defs>
</svg>
