<svg width="15" height="15" viewBox="0 0 15 15" fill="none" xmlns="http://www.w3.org/2000/svg">
<path d="M9.52228 8.75254L7.57029 7.28855V4.30639C7.57029 4.00654 7.32792 3.76416 7.02807 3.76416C6.72821 3.76416 6.48584 4.00654 6.48584 4.30639V7.55969C6.48584 7.73048 6.56609 7.89154 6.70273 7.99348L8.87158 9.62013C8.96917 9.69333 9.08306 9.72857 9.19637 9.72857C9.36175 9.72857 9.52442 9.65428 9.6307 9.51114C9.81076 9.27199 9.76195 8.93202 9.52228 8.75254Z" fill="#F77BF9"/>
<path d="M7.02832 0.516357C3.16828 0.516357 0.0283203 3.65632 0.0283203 7.51636C0.0283203 11.3764 3.16828 14.5164 7.02832 14.5164C10.8884 14.5164 14.0283 11.3764 14.0283 7.51636C14.0283 3.65632 10.8884 0.516357 7.02832 0.516357ZM7.02832 13.4319C3.76689 13.4319 1.11275 10.7778 1.11275 7.51636C1.11275 4.25493 3.76689 1.60078 7.02832 1.60078C10.2903 1.60078 12.9439 4.25493 12.9439 7.51636C12.9439 10.7778 10.2897 13.4319 7.02832 13.4319Z" fill="#F77BF9"/>
</svg>
