<svg width="23" height="23" viewBox="0 0 23 23" fill="none" xmlns="http://www.w3.org/2000/svg">
<g clip-path="url(#clip0_2_306)">
<path d="M20.2681 0.97876H10.1274C8.70586 0.97876 7.54932 2.13531 7.54932 3.55688V6.13501H9.26807V3.55688C9.26807 3.08303 9.65358 2.69751 10.1274 2.69751H20.2681C20.7419 2.69751 21.1274 3.08303 21.1274 3.55688V13.5256C21.1274 13.9995 20.7419 14.385 20.2681 14.385H17.8618V16.1038H20.2681C21.6896 16.1038 22.8462 14.9472 22.8462 13.5256V3.55688C22.8462 2.13531 21.6896 0.97876 20.2681 0.97876ZM13.5649 7.85376H3.42432C2.00274 7.85376 0.846191 9.01031 0.846191 10.4319V20.4006C0.846191 21.8222 2.00274 22.9788 3.42432 22.9788H13.5649C14.9865 22.9788 16.1431 21.8222 16.1431 20.4006V10.4319C16.1431 9.01031 14.9865 7.85376 13.5649 7.85376ZM14.4243 20.4006C14.4243 20.8745 14.0388 21.26 13.5649 21.26H3.42432C2.95046 21.26 2.56494 20.8745 2.56494 20.4006V10.4319C2.56494 9.95802 2.95046 9.57251 3.42432 9.57251H13.5649C14.0388 9.57251 14.4243 9.95802 14.4243 10.4319V20.4006Z" fill="#3D8AFF"/>
</g>
<defs>
<clipPath id="clip0_2_306">
<rect width="22" height="22" fill="white" transform="translate(0.846191 0.97876)"/>
</clipPath>
</defs>
</svg>
