<svg width="16" height="16" viewBox="0 0 16 16" fill="none" xmlns="http://www.w3.org/2000/svg">
<g clip-path="url(#clip0_42_1112)">
<path d="M14.1211 0.796875H7.20703C6.23777 0.796875 5.44922 1.58543 5.44922 2.55469V4.3125H6.62109V2.55469C6.62109 2.2316 6.88395 1.96875 7.20703 1.96875H14.1211C14.4442 1.96875 14.707 2.2316 14.707 2.55469V9.35156C14.707 9.67465 14.4442 9.9375 14.1211 9.9375H12.4805V11.1094H14.1211C15.0904 11.1094 15.8789 10.3208 15.8789 9.35156V2.55469C15.8789 1.58543 15.0904 0.796875 14.1211 0.796875ZM9.55078 5.48438H2.63672C1.66746 5.48438 0.878906 6.27293 0.878906 7.24219V14.0391C0.878906 15.0083 1.66746 15.7969 2.63672 15.7969H9.55078C10.52 15.7969 11.3086 15.0083 11.3086 14.0391V7.24219C11.3086 6.27293 10.52 5.48438 9.55078 5.48438ZM10.1367 14.0391C10.1367 14.3621 9.87387 14.625 9.55078 14.625H2.63672C2.31363 14.625 2.05078 14.3621 2.05078 14.0391V7.24219C2.05078 6.9191 2.31363 6.65625 2.63672 6.65625H9.55078C9.87387 6.65625 10.1367 6.9191 10.1367 7.24219V14.0391Z" fill="white"/>
</g>
<defs>
<clipPath id="clip0_42_1112">
<rect width="15" height="15" fill="white" transform="translate(0.878906 0.796875)"/>
</clipPath>
</defs>
</svg>
