<svg width="22" height="23" viewBox="0 0 22 23" fill="none" xmlns="http://www.w3.org/2000/svg">
<path d="M7.59653 0.920288H2.54409C1.14129 0.920288 0 2.06158 0 3.46438V8.51682C0 9.91962 1.14129 11.0609 2.54409 11.0609H7.59653C8.99933 11.0609 10.1406 9.91962 10.1406 8.51682V3.46438C10.1406 2.06158 8.99933 0.920288 7.59653 0.920288ZM8.42188 8.51682C8.42188 8.9719 8.05161 9.34216 7.59653 9.34216H2.54409C2.08901 9.34216 1.71875 8.9719 1.71875 8.51682V3.46438C1.71875 3.0093 2.08901 2.63904 2.54409 2.63904H7.59653C8.05161 2.63904 8.42188 3.0093 8.42188 3.46438V8.51682Z" fill="white" fill-opacity="0.6"/>
<path d="M19.4219 0.920288H14.4375C13.0159 0.920288 11.8594 2.07683 11.8594 3.49841V8.48279C11.8594 9.90437 13.0159 11.0609 14.4375 11.0609H19.4219C20.8435 11.0609 22 9.90437 22 8.48279V3.49841C22 2.07683 20.8435 0.920288 19.4219 0.920288ZM20.2812 8.48279C20.2812 8.95665 19.8957 9.34216 19.4219 9.34216H14.4375C13.9636 9.34216 13.5781 8.95665 13.5781 8.48279V3.49841C13.5781 3.02455 13.9636 2.63904 14.4375 2.63904H19.4219C19.8957 2.63904 20.2812 3.02455 20.2812 3.49841V8.48279Z" fill="white" fill-opacity="0.6"/>
<path d="M7.59653 12.7797H2.54409C1.14129 12.7797 0 13.921 0 15.3238V20.3762C0 21.779 1.14129 22.9203 2.54409 22.9203H7.59653C8.99933 22.9203 10.1406 21.779 10.1406 20.3762V15.3238C10.1406 13.921 8.99933 12.7797 7.59653 12.7797ZM8.42188 20.3762C8.42188 20.8313 8.05161 21.2015 7.59653 21.2015H2.54409C2.08901 21.2015 1.71875 20.8313 1.71875 20.3762V15.3238C1.71875 14.8687 2.08901 14.4984 2.54409 14.4984H7.59653C8.05161 14.4984 8.42188 14.8687 8.42188 15.3238V20.3762Z" fill="white" fill-opacity="0.6"/>
<path d="M19.4219 12.7797H14.4375C13.0159 12.7797 11.8594 13.9362 11.8594 15.3578V20.3422C11.8594 21.7637 13.0159 22.9203 14.4375 22.9203H19.4219C20.8435 22.9203 22 21.7637 22 20.3422V15.3578C22 13.9362 20.8435 12.7797 19.4219 12.7797ZM20.2812 20.3422C20.2812 20.816 19.8957 21.2015 19.4219 21.2015H14.4375C13.9636 21.2015 13.5781 20.816 13.5781 20.3422V15.3578C13.5781 14.8839 13.9636 14.4984 14.4375 14.4984H19.4219C19.8957 14.4984 20.2812 14.8839 20.2812 15.3578V20.3422Z" fill="white" fill-opacity="0.6"/>
</svg>
