<svg width="20" height="19" viewBox="0 0 20 19" fill="none" xmlns="http://www.w3.org/2000/svg">
<path d="M18.3161 16.4056H1.81608C1.57297 16.4056 1.33981 16.5022 1.1679 16.6741C0.995991 16.846 0.899414 17.0792 0.899414 17.3223C0.899414 17.5654 0.995991 17.7986 1.1679 17.9705C1.33981 18.1424 1.57297 18.239 1.81608 18.239H18.3161C18.5592 18.239 18.7924 18.1424 18.9643 17.9705C19.1362 17.7986 19.2328 17.5654 19.2328 17.3223C19.2328 17.0792 19.1362 16.846 18.9643 16.6741C18.7924 16.5022 18.5592 16.4056 18.3161 16.4056Z" fill="#1BCBFF"/>
<path d="M10.0662 14.5777C9.82313 14.5777 9.58997 14.4811 9.41806 14.3092C9.24615 14.1373 9.14958 13.9041 9.14958 13.661V3.95353L6.13375 6.97853C5.96114 7.15114 5.72703 7.24811 5.48292 7.24811C5.23881 7.24811 5.0047 7.15114 4.83208 6.97853C4.65947 6.80592 4.5625 6.57181 4.5625 6.32769C4.5625 6.08358 4.65947 5.84947 4.83208 5.67686L9.41541 1.09353C9.50063 1.00761 9.60201 0.939413 9.71371 0.892876C9.82542 0.846337 9.94523 0.822378 10.0662 0.822378C10.1873 0.822378 10.3071 0.846337 10.4188 0.892876C10.5305 0.939413 10.6319 1.00761 10.7171 1.09353L15.3004 5.67686C15.3859 5.76233 15.4537 5.8638 15.4999 5.97547C15.5462 6.08714 15.57 6.20682 15.57 6.32769C15.57 6.44857 15.5462 6.56825 15.4999 6.67992C15.4537 6.79159 15.3859 6.89306 15.3004 6.97853C15.2149 7.064 15.1135 7.13179 15.0018 7.17805C14.8901 7.22431 14.7704 7.24811 14.6496 7.24811C14.5287 7.24811 14.409 7.22431 14.2973 7.17805C14.1857 7.13179 14.0842 7.064 13.9987 6.97853L10.9829 3.95353V13.661C10.9829 13.9041 10.8863 14.1373 10.7144 14.3092C10.5425 14.4811 10.3094 14.5777 10.0662 14.5777Z" fill="#1BCBFF"/>
</svg>
