<svg width="23" height="23" viewBox="0 0 23 23" fill="none" xmlns="http://www.w3.org/2000/svg">
<path d="M19.9362 17.85H3.4362C3.19308 17.85 2.95993 17.9466 2.78802 18.1185C2.61611 18.2904 2.51953 18.5235 2.51953 18.7666C2.51953 19.0098 2.61611 19.2429 2.78802 19.4148C2.95993 19.5867 3.19308 19.6833 3.4362 19.6833H19.9362C20.1793 19.6833 20.4125 19.5867 20.5844 19.4148C20.7563 19.2429 20.8529 19.0098 20.8529 18.7666C20.8529 18.5235 20.7563 18.2904 20.5844 18.1185C20.4125 17.9466 20.1793 17.85 19.9362 17.85Z" fill="#C605CA"/>
<path d="M11.6864 16.022C11.4432 16.022 11.2101 15.9255 11.0382 15.7535C10.8663 15.5816 10.7697 15.3485 10.7697 15.1054V5.39786L7.75387 8.42286C7.58125 8.59548 7.34714 8.69245 7.10303 8.69245C6.85892 8.69245 6.62481 8.59548 6.4522 8.42286C6.27959 8.25025 6.18262 8.01614 6.18262 7.77203C6.18262 7.52792 6.27959 7.29381 6.4522 7.1212L11.0355 2.53786C11.1207 2.45195 11.2221 2.38375 11.3338 2.33721C11.4455 2.29067 11.5653 2.26671 11.6864 2.26671C11.8074 2.26671 11.9272 2.29067 12.0389 2.33721C12.1506 2.38375 12.252 2.45195 12.3372 2.53786L16.9205 7.1212C17.006 7.20667 17.0738 7.30813 17.12 7.4198C17.1663 7.53147 17.1901 7.65116 17.1901 7.77203C17.1901 7.8929 17.1663 8.01259 17.12 8.12426C17.0738 8.23593 17.006 8.3374 16.9205 8.42286C16.835 8.50833 16.7336 8.57613 16.6219 8.62239C16.5102 8.66864 16.3906 8.69245 16.2697 8.69245C16.1488 8.69245 16.0291 8.66864 15.9175 8.62239C15.8058 8.57613 15.7043 8.50833 15.6189 8.42286L12.603 5.39786V15.1054C12.603 15.3485 12.5064 15.5816 12.3345 15.7535C12.1626 15.9255 11.9295 16.022 11.6864 16.022Z" fill="#C605CA"/>
</svg>
