<svg width="16" height="16" viewBox="0 0 16 16" fill="none" xmlns="http://www.w3.org/2000/svg">
<g clip-path="url(#clip0_41_513)">
<path d="M14.5156 10.7129C14.3499 10.7129 14.1909 10.7787 14.0737 10.8959C13.9565 11.0132 13.8906 11.1721 13.8906 11.3379V13.8379H2.64063V11.3379C2.64063 11.1721 2.57478 11.0132 2.45757 10.8959C2.34036 10.7787 2.18139 10.7129 2.01563 10.7129C1.84986 10.7129 1.69089 10.7787 1.57368 10.8959C1.45647 11.0132 1.39063 11.1721 1.39062 11.3379V14.4629C1.39063 14.6287 1.45647 14.7876 1.57368 14.9048C1.69089 15.022 1.84986 15.0879 2.01563 15.0879H14.5156C14.6814 15.0879 14.8404 15.022 14.9576 14.9048C15.0748 14.7876 15.1406 14.6287 15.1406 14.4629V11.3379C15.1406 11.1721 15.0748 11.0132 14.9576 10.8959C14.8404 10.7787 14.6814 10.7129 14.5156 10.7129Z" fill="white"/>
<path d="M7.82388 11.7798C7.94109 11.8969 8.10003 11.9628 8.26576 11.9628C8.43149 11.9628 8.59043 11.8969 8.70763 11.7798L12.4576 8.02977C12.5715 7.91189 12.6345 7.75401 12.6331 7.59014C12.6316 7.42627 12.5659 7.26951 12.45 7.15363C12.3341 7.03775 12.1774 6.97202 12.0135 6.97059C11.8496 6.96917 11.6918 7.03217 11.5739 7.14602L8.89076 9.82914V1.96289C8.89076 1.79713 8.82491 1.63816 8.7077 1.52095C8.59049 1.40374 8.43152 1.33789 8.26576 1.33789C8.1 1.33789 7.94103 1.40374 7.82382 1.52095C7.70661 1.63816 7.64076 1.79713 7.64076 1.96289V9.82914L4.95763 7.14602C4.83976 7.03217 4.68188 6.96917 4.51801 6.97059C4.35413 6.97202 4.19738 7.03775 4.0815 7.15363C3.96562 7.26951 3.89989 7.42627 3.89846 7.59014C3.89704 7.75401 3.96003 7.91189 4.07388 8.02977L7.82388 11.7798Z" fill="white"/>
</g>
<defs>
<clipPath id="clip0_41_513">
<rect width="15" height="15" fill="white" transform="translate(0.765625 0.712891)"/>
</clipPath>
</defs>
</svg>
