<svg width="21" height="21" viewBox="0 0 21 21" fill="none" xmlns="http://www.w3.org/2000/svg">
<g clip-path="url(#clip0_65_5905)">
<path d="M20.4861 9.63018C20.3075 9.38577 16.0503 3.64557 10.6132 3.64557C5.17602 3.64557 0.918672 9.38577 0.740195 9.62995C0.570977 9.86182 0.570977 10.1763 0.740195 10.4082C0.918672 10.6526 5.17602 16.3928 10.6132 16.3928C16.0503 16.3928 20.3075 10.6526 20.4861 10.4084C20.6556 10.1765 20.6556 9.86182 20.4861 9.63018ZM10.6132 15.0741C6.60813 15.0741 3.13934 11.2642 2.1125 10.0187C3.13801 8.77213 6.59953 4.96424 10.6132 4.96424C14.618 4.96424 18.0866 8.77346 19.1138 10.0196C18.0883 11.2662 14.6268 15.0741 10.6132 15.0741Z" fill="white"/>
<path d="M10.6133 6.06317C8.43195 6.06317 6.65723 7.8379 6.65723 10.0192C6.65723 12.2006 8.43195 13.9753 10.6133 13.9753C12.7946 13.9753 14.5693 12.2006 14.5693 10.0192C14.5693 7.8379 12.7946 6.06317 10.6133 6.06317ZM10.6133 12.6566C9.15898 12.6566 7.97594 11.4735 7.97594 10.0192C7.97594 8.56497 9.15902 7.38188 10.6133 7.38188C12.0675 7.38188 13.2506 8.56497 13.2506 10.0192C13.2506 11.4735 12.0676 12.6566 10.6133 12.6566Z" fill="white"/>
</g>
<defs>
<clipPath id="clip0_65_5905">
<rect width="20" height="20" fill="white" transform="translate(0.613281 0.019165)"/>
</clipPath>
</defs>
</svg>
