<svg width="23" height="23" viewBox="0 0 23 23" fill="none" xmlns="http://www.w3.org/2000/svg">
<path d="M20.1328 5.77954H17.51C17.9155 5.24054 18.1562 4.57087 18.1562 3.84595C18.1562 2.06897 16.7106 0.623291 14.9336 0.623291C13.8632 0.623291 13.0739 1.00679 12.4496 1.83015C11.9273 2.51903 11.5454 3.48084 11.0664 4.69608C10.5874 3.4808 10.2055 2.51903 9.6832 1.83015C9.05891 1.00679 8.26961 0.623291 7.19922 0.623291C5.42225 0.623291 3.97656 2.06897 3.97656 3.84595C3.97656 4.57087 4.21732 5.24054 4.62286 5.77954H2C0.933816 5.77954 0.0664062 6.64695 0.0664062 7.71313V9.0022C0.0664062 9.84245 0.605277 10.5589 1.35547 10.8249V20.6897C1.35547 21.7559 2.22288 22.6233 3.28906 22.6233H18.8438C19.9099 22.6233 20.7773 21.7559 20.7773 20.6897V10.8249C21.5275 10.5589 22.0664 9.84245 22.0664 9.0022V7.71313C22.0664 6.64695 21.199 5.77954 20.1328 5.77954ZM12.2495 5.20978C13.2369 2.70478 13.6123 1.91235 14.9336 1.91235C15.9998 1.91235 16.8672 2.77976 16.8672 3.84595C16.8672 4.91213 15.9998 5.77954 14.9336 5.77954H12.024C12.103 5.58124 12.1784 5.39033 12.2495 5.20978ZM7.19922 1.91235C8.52055 1.91235 8.89593 2.70478 9.8833 5.20978C9.95446 5.39033 10.0298 5.58124 10.1088 5.77954H7.19922C6.13304 5.77954 5.26562 4.91213 5.26562 3.84595C5.26562 2.77976 6.13304 1.91235 7.19922 1.91235ZM8.48828 21.3342H3.28906C2.93367 21.3342 2.64453 21.0451 2.64453 20.6897V10.9358H8.48828V21.3342ZM8.48828 9.64673H2C1.64461 9.64673 1.35547 9.35759 1.35547 9.0022V7.71313C1.35547 7.35774 1.64461 7.0686 2 7.0686H8.48828V9.64673ZM12.3555 21.3342H9.77734V7.0686C9.91239 7.0686 11.6147 7.0686 12.3555 7.0686V21.3342ZM19.4883 20.6897C19.4883 21.0451 19.1991 21.3342 18.8438 21.3342H13.6445V10.9358H19.4883V20.6897ZM20.7773 9.0022C20.7773 9.35759 20.4882 9.64673 20.1328 9.64673H13.6445V7.0686H20.1328C20.4882 7.0686 20.7773 7.35774 20.7773 7.71313V9.0022Z" fill="#1BCBFF"/>
</svg>
