<svg width="23" height="23" viewBox="0 0 23 23" fill="none" xmlns="http://www.w3.org/2000/svg">
<path d="M20.1328 5.91382H17.51C17.9155 5.37482 18.1562 4.70515 18.1562 3.98022C18.1562 2.20325 16.7106 0.757568 14.9336 0.757568C13.8632 0.757568 13.0739 1.14106 12.4496 1.96443C11.9273 2.65331 11.5454 3.61512 11.0664 4.83036C10.5874 3.61508 10.2055 2.65331 9.6832 1.96443C9.05891 1.14106 8.26961 0.757568 7.19922 0.757568C5.42225 0.757568 3.97656 2.20325 3.97656 3.98022C3.97656 4.70515 4.21732 5.37482 4.62286 5.91382H2C0.933816 5.91382 0.0664062 6.78123 0.0664062 7.84741V9.13647C0.0664062 9.97673 0.605277 10.6931 1.35547 10.9592V20.824C1.35547 21.8902 2.22288 22.7576 3.28906 22.7576H18.8438C19.9099 22.7576 20.7773 21.8902 20.7773 20.824V10.9592C21.5275 10.6931 22.0664 9.97673 22.0664 9.13647V7.84741C22.0664 6.78123 21.199 5.91382 20.1328 5.91382ZM12.2495 5.34405C13.2369 2.83906 13.6123 2.04663 14.9336 2.04663C15.9998 2.04663 16.8672 2.91404 16.8672 3.98022C16.8672 5.04641 15.9998 5.91382 14.9336 5.91382H12.024C12.103 5.71552 12.1784 5.52461 12.2495 5.34405ZM7.19922 2.04663C8.52055 2.04663 8.89593 2.83906 9.8833 5.34405C9.95446 5.52461 10.0298 5.71552 10.1088 5.91382H7.19922C6.13304 5.91382 5.26562 5.04641 5.26562 3.98022C5.26562 2.91404 6.13304 2.04663 7.19922 2.04663ZM8.48828 21.4685H3.28906C2.93367 21.4685 2.64453 21.1794 2.64453 20.824V11.0701H8.48828V21.4685ZM8.48828 9.78101H2C1.64461 9.78101 1.35547 9.49187 1.35547 9.13647V7.84741C1.35547 7.49202 1.64461 7.20288 2 7.20288H8.48828V9.78101ZM12.3555 21.4685H9.77734V7.20288C9.91239 7.20288 11.6147 7.20288 12.3555 7.20288V21.4685ZM19.4883 20.824C19.4883 21.1794 19.1991 21.4685 18.8438 21.4685H13.6445V11.0701H19.4883V20.824ZM20.7773 9.13647C20.7773 9.49187 20.4882 9.78101 20.1328 9.78101H13.6445V7.20288H20.1328C20.4882 7.20288 20.7773 7.49202 20.7773 7.84741V9.13647Z" fill="#C605CA"/>
</svg>
