<svg width="18" height="21" viewBox="0 0 18 21" fill="none" xmlns="http://www.w3.org/2000/svg">
<path d="M1.22208 20.0542C1.36525 20.1335 1.52705 20.173 1.69067 20.1687C1.85428 20.1643 2.01375 20.1162 2.1525 20.0294L9 15.7495L15.8475 20.0294C15.9863 20.1161 16.1457 20.1641 16.3093 20.1684C16.4728 20.1727 16.6346 20.1332 16.7777 20.0538C16.9208 19.9745 17.0401 19.8583 17.1231 19.7173C17.2062 19.5764 17.25 19.4157 17.25 19.2521V2.75208C17.25 2.02273 16.9603 1.32326 16.4445 0.807532C15.9288 0.291807 15.2293 0.0020752 14.5 0.0020752H3.5C2.77065 0.0020752 2.07118 0.291807 1.55546 0.807532C1.03973 1.32326 0.75 2.02273 0.75 2.75208V19.2521C0.749921 19.4157 0.79366 19.5764 0.876676 19.7175C0.959692 19.8585 1.07896 19.9748 1.22208 20.0542V20.0542ZM2.58333 2.75208C2.58333 2.50896 2.67991 2.2758 2.85182 2.10389C3.02373 1.93199 3.25688 1.83541 3.5 1.83541H14.5C14.7431 1.83541 14.9763 1.93199 15.1482 2.10389C15.3201 2.2758 15.4167 2.50896 15.4167 2.75208V17.6021L9.48583 13.8951C9.34014 13.804 9.1718 13.7557 9 13.7557C8.8282 13.7557 8.65985 13.804 8.51416 13.8951L2.58333 17.6021V2.75208Z" fill="white" fill-opacity="0.6"/>
</svg>
