<svg width="23" height="22" viewBox="0 0 23 22" fill="none" xmlns="http://www.w3.org/2000/svg">
<path d="M11.0664 0.354736C10.5141 0.354736 10.0664 0.80247 10.0664 1.35474V5.35474C10.0664 5.90701 10.5141 6.35474 11.0664 6.35474C11.6187 6.35474 12.0664 5.90701 12.0664 5.35474V1.35474C12.0664 0.80247 11.6187 0.354736 11.0664 0.354736Z" fill="#C605CA"/>
<path d="M11.0664 17.3547C10.5141 17.3547 10.0664 17.8025 10.0664 18.3547V20.3548C10.0664 20.907 10.5141 21.3548 11.0664 21.3548C11.6187 21.3548 12.0664 20.907 12.0664 20.3548V18.3547C12.0664 17.8025 11.6187 17.3547 11.0664 17.3547Z" fill="#C605CA"/>
<path d="M21.0664 10.3547H17.0664C16.5141 10.3547 16.0664 10.8025 16.0664 11.3547C16.0664 11.907 16.5141 12.3547 17.0664 12.3547H21.0664C21.6187 12.3547 22.0664 11.907 22.0664 11.3547C22.0664 10.8025 21.6187 10.3547 21.0664 10.3547Z" fill="#C605CA"/>
<path d="M6.0664 11.3547C6.0664 10.8025 5.61867 10.3547 5.0664 10.3547H1.0664C0.514139 10.3547 0.0664062 10.8025 0.0664062 11.3547C0.0664062 11.907 0.514139 12.3547 1.0664 12.3547H5.0664C5.61867 12.3547 6.0664 11.907 6.0664 11.3547Z" fill="#C605CA"/>
<path d="M18.8441 3.57653C18.4537 3.186 17.8205 3.186 17.4299 3.57653L14.6015 6.405C14.211 6.79553 14.211 7.42866 14.6015 7.8192C14.7968 8.01446 15.0527 8.11213 15.3086 8.11213C15.5645 8.11213 15.8204 8.01453 16.0157 7.8192L18.8441 4.99073C19.2347 4.6002 19.2347 3.96706 18.8441 3.57653Z" fill="#C605CA"/>
<path d="M6.1163 14.8903L3.28797 17.7187C2.8975 18.1093 2.8975 18.7424 3.28797 19.1329C3.48323 19.3282 3.73917 19.4258 3.9951 19.4258C4.25103 19.4258 4.50696 19.3282 4.70223 19.1329L7.53063 16.3045C7.92109 15.9139 7.92109 15.2808 7.53063 14.8903C7.14003 14.4997 6.5069 14.4997 6.1163 14.8903Z" fill="#C605CA"/>
<path d="M4.70222 3.57657C4.31168 3.18603 3.67855 3.1861 3.28802 3.57657C2.89748 3.9671 2.89748 4.60023 3.28802 4.99077L6.11642 7.81923C6.31175 8.0145 6.56762 8.11217 6.82355 8.11217C7.07942 8.11217 7.33542 8.0145 7.53062 7.8193C7.92115 7.42877 7.92115 6.79563 7.53062 6.4051L4.70222 3.57657Z" fill="#C605CA"/>
</svg>
