<svg width="24" height="25" viewBox="0 0 24 25" fill="none" xmlns="http://www.w3.org/2000/svg">
<path d="M18 19.4333H6C5.45 19.4333 5 18.9833 5 18.4333V6.43335C5 5.88335 5.45 5.43335 6 5.43335H11C11.55 5.43335 12 4.98335 12 4.43335C12 3.88335 11.55 3.43335 11 3.43335H5C3.89 3.43335 3 4.33335 3 5.43335V19.4333C3 20.5333 3.9 21.4333 5 21.4333H19C20.1 21.4333 21 20.5333 21 19.4333V13.4333C21 12.8833 20.55 12.4333 20 12.4333C19.45 12.4333 19 12.8833 19 13.4333V18.4333C19 18.9833 18.55 19.4333 18 19.4333ZM14 4.43335C14 4.98335 14.45 5.43335 15 5.43335H17.59L8.46 14.5633C8.07 14.9534 8.07 15.5833 8.46 15.9733C8.85 16.3633 9.48 16.3633 9.87 15.9733L19 6.84335V9.43335C19 9.98335 19.45 10.4333 20 10.4333C20.55 10.4333 21 9.98335 21 9.43335V4.43335C21 3.88335 20.55 3.43335 20 3.43335H15C14.45 3.43335 14 3.88335 14 4.43335Z" fill="#0096EA"/>
</svg>
