<svg width="23" height="23" viewBox="0 0 23 23" fill="none" xmlns="http://www.w3.org/2000/svg">
<g clip-path="url(#clip0_63_4404)">
<path d="M15.96 11.1555C15.5373 10.9545 15.1059 10.7814 14.667 10.6364C16.0885 9.56941 17.0097 7.87038 17.0097 5.96021C17.0097 2.73798 14.3883 0.116455 11.166 0.116455C7.94373 0.116455 5.32225 2.73798 5.32225 5.96021C5.32225 7.87249 6.24556 9.57319 7.66976 10.64C6.36489 11.0696 5.14049 11.738 4.06885 12.6195C2.1038 14.2359 0.737526 16.4904 0.221773 18.9678C0.0601241 19.7441 0.253784 20.5414 0.752995 21.1553C1.24976 21.7661 1.98637 22.1165 2.7739 22.1165H13.3574C13.832 22.1165 14.2168 21.7317 14.2168 21.2571C14.2168 20.7824 13.832 20.3977 13.3574 20.3977H2.7739C2.40703 20.3977 2.1857 20.1929 2.08644 20.0709C1.91504 19.8601 1.8487 19.5858 1.90443 19.3181C2.79624 15.0343 6.57474 11.9051 10.9382 11.7996C11.0138 11.8025 11.0897 11.804 11.166 11.804C11.243 11.804 11.3197 11.8025 11.3961 11.7995C12.7332 11.8309 14.0193 12.136 15.2222 12.7078C15.6509 12.9115 16.1635 12.7293 16.3672 12.3006C16.571 11.8719 16.3887 11.3593 15.96 11.1555ZM11.3756 10.0799C11.3059 10.0787 11.236 10.078 11.166 10.078C11.0966 10.078 11.0273 10.0787 10.958 10.08C8.77973 9.97134 7.041 8.16502 7.041 5.96021C7.041 3.68565 8.89145 1.83521 11.166 1.83521C13.4405 1.83521 15.291 3.68565 15.291 5.96021C15.291 8.16446 13.5531 9.97044 11.3756 10.0799Z" fill="white" fill-opacity="0.6"/>
<path d="M21.3066 17.175H18.9434V14.8118C18.9434 14.3371 18.5586 13.9524 18.084 13.9524C17.6094 13.9524 17.2246 14.3371 17.2246 14.8118V17.175H14.8613C14.3867 17.175 14.002 17.5598 14.002 18.0344C14.002 18.5091 14.3867 18.8938 14.8613 18.8938H17.2246V21.2571C17.2246 21.7317 17.6094 22.1165 18.084 22.1165C18.5586 22.1165 18.9434 21.7317 18.9434 21.2571V18.8938H21.3066C21.7813 18.8938 22.166 18.5091 22.166 18.0344C22.166 17.5598 21.7813 17.175 21.3066 17.175Z" fill="white" fill-opacity="0.6"/>
</g>
<defs>
<clipPath id="clip0_63_4404">
<rect width="22" height="22" fill="white" transform="translate(0.166016 0.116455)"/>
</clipPath>
</defs>
</svg>
