<svg width="23" height="23" viewBox="0 0 23 23" fill="none" xmlns="http://www.w3.org/2000/svg">
<g clip-path="url(#clip0_63_4419)">
<path d="M4.97827 15.146V21.4023C4.97816 21.4926 4.99587 21.5821 5.03038 21.6655C5.0649 21.749 5.11553 21.8248 5.17939 21.8887C5.24326 21.9525 5.31909 22.0032 5.40255 22.0377C5.48601 22.0722 5.57546 22.0899 5.66577 22.0898C5.73974 22.0899 5.81323 22.0779 5.8833 22.0542L10.0083 20.6792C10.1452 20.6337 10.2642 20.5462 10.3486 20.4292C10.433 20.3122 10.4783 20.1716 10.4783 20.0273V15.5815L18.6752 19.1935C18.976 19.3172 19.303 19.3639 19.6264 19.3295C19.9499 19.295 20.2596 19.1804 20.5276 18.996C20.824 18.7925 21.0657 18.5191 21.2315 18.2C21.3973 17.881 21.4821 17.526 21.4783 17.1665V3.63813C21.4821 3.27858 21.3973 2.92362 21.2315 2.60456C21.0657 2.28549 20.824 2.01212 20.5276 1.80856C20.2562 1.62328 19.9427 1.50889 19.6158 1.47582C19.2888 1.44274 18.9588 1.49204 18.6558 1.61922L9.64598 5.58981H5.66577C4.44926 5.58591 3.27662 6.04391 2.38476 6.87125C1.4929 7.69859 0.948313 8.83361 0.861019 10.047C0.773726 11.2604 1.15024 12.4617 1.91448 13.4081C2.67873 14.3546 3.77373 14.9758 4.97827 15.146ZM10.4783 6.72652L19.1908 2.88614C19.2831 2.84771 19.3836 2.83334 19.483 2.84438C19.5823 2.85541 19.6772 2.8915 19.7588 2.94926C19.8683 3.0272 19.957 3.13084 20.0171 3.25108C20.0771 3.37132 20.1067 3.50446 20.1033 3.63882V17.1672C20.1067 17.3015 20.0771 17.4347 20.0171 17.5549C19.957 17.6751 19.8683 17.7788 19.7588 17.8567C19.6802 17.9126 19.5891 17.9483 19.4935 17.9607C19.3978 17.9731 19.3006 17.9619 19.2103 17.9279L10.4783 14.0788V6.72652ZM9.10327 19.5323L6.35327 20.4489V15.2148H9.10327V19.5323ZM5.66577 6.9648H9.10327V13.8398H5.66577C4.75409 13.8398 3.87975 13.4776 3.23509 12.833C2.59044 12.1883 2.22827 11.314 2.22827 10.4023C2.22827 9.49062 2.59044 8.61628 3.23509 7.97162C3.87975 7.32697 4.75409 6.9648 5.66577 6.9648Z" fill="white" fill-opacity="0.6"/>
</g>
<defs>
<clipPath id="clip0_63_4419">
<rect width="22" height="22" fill="white" transform="translate(0.166016 0.777344)"/>
</clipPath>
</defs>
</svg>
