<svg width="20" height="20" viewBox="0 0 20 20" fill="none" xmlns="http://www.w3.org/2000/svg">
<circle cx="9.93641" cy="9.96522" r="9.46278" fill="white"/>
<path d="M8.75502 12.2595V12.1025C8.7581 11.5639 8.8058 11.1346 8.89813 10.8145C8.99354 10.4944 9.13204 10.2359 9.31362 10.039C9.4952 9.84198 9.71371 9.66348 9.96916 9.50344C10.16 9.38033 10.3308 9.25261 10.4816 9.12027C10.6324 8.98793 10.7524 8.84175 10.8417 8.68171C10.9309 8.51859 10.9755 8.33701 10.9755 8.13696C10.9755 7.9246 10.9248 7.73841 10.8232 7.57837C10.7216 7.41833 10.5847 7.29522 10.4123 7.20905C10.2431 7.12288 10.0553 7.07979 9.84913 7.07979C9.64908 7.07979 9.45981 7.12442 9.2813 7.21367C9.1028 7.29984 8.95661 7.4291 8.84274 7.60145C8.72886 7.77072 8.66731 7.98154 8.65808 8.23391H6.77455C6.78994 7.61838 6.93767 7.11057 7.21774 6.71047C7.4978 6.3073 7.86866 6.00723 8.33031 5.81026C8.79195 5.61021 9.30131 5.51019 9.85836 5.51019C10.4708 5.51019 11.0125 5.61175 11.4834 5.81487C11.9542 6.01492 12.3236 6.30576 12.5913 6.68739C12.8591 7.06902 12.9929 7.52913 12.9929 8.06772C12.9929 8.4278 12.9329 8.74788 12.8129 9.02794C12.696 9.30493 12.5313 9.55114 12.3189 9.76658C12.1066 9.97894 11.8558 10.1713 11.5665 10.3436C11.3233 10.4883 11.1233 10.6391 10.9663 10.7961C10.8124 10.953 10.697 11.1346 10.6201 11.3408C10.5462 11.547 10.5077 11.8009 10.5047 12.1025V12.2595H8.75502ZM9.66909 15.214C9.36132 15.214 9.09818 15.1063 8.87967 14.8909C8.66423 14.6724 8.55805 14.4108 8.56113 14.1061C8.55805 13.8045 8.66423 13.5459 8.87967 13.3305C9.09818 13.1151 9.36132 13.0073 9.66909 13.0073C9.96146 13.0073 10.2184 13.1151 10.44 13.3305C10.6616 13.5459 10.774 13.8045 10.777 14.1061C10.774 14.3092 10.7201 14.4954 10.6155 14.6647C10.5139 14.8309 10.38 14.9647 10.2138 15.0663C10.0476 15.1648 9.86606 15.214 9.66909 15.214Z" fill="#081E5A"/>
</svg>
