<svg width="23" height="23" viewBox="0 0 23 23" fill="none" xmlns="http://www.w3.org/2000/svg">
<g clip-path="url(#clip0_2_647)">
<path d="M11.6777 22.9966C17.7529 22.9966 22.6777 18.0717 22.6777 11.9966C22.6777 5.92145 17.7529 0.996582 11.6777 0.996582C5.6026 0.996582 0.677734 5.92145 0.677734 11.9966C0.677734 18.0717 5.6026 22.9966 11.6777 22.9966Z" fill="#013F83"/>
<path d="M11.6779 7.70502L14.6281 10.6553L16.2375 9.04626L11.6779 4.48657L7.11816 9.04626L8.72758 10.6553L11.6779 7.70502Z" fill="#F1B019"/>
<path d="M11.6779 16.288L8.72758 13.3378L7.11816 14.9468L11.6779 19.5065L16.2375 14.9468L14.6281 13.3378L11.6779 16.288Z" fill="#F1B019"/>
<path d="M10.066 11.9966L11.6753 10.3873L13.2846 11.9966L11.6753 13.6059L10.066 11.9966Z" fill="#F1B019"/>
<path d="M15.9664 11.9972L17.5757 10.3879L19.185 11.9972L17.5757 13.6065L15.9664 11.9972Z" fill="#F1B019"/>
<path d="M4.16626 11.9958L5.77554 10.3866L7.38481 11.9958L5.77554 13.6051L4.16626 11.9958Z" fill="#F1B019"/>
</g>
<defs>
<clipPath id="clip0_2_647">
<rect width="22" height="22" fill="white" transform="translate(0.677734 0.996582)"/>
</clipPath>
</defs>
</svg>
