<svg width="23" height="23" viewBox="0 0 23 23" fill="none" xmlns="http://www.w3.org/2000/svg">
<g clip-path="url(#clip0_63_4412)">
<path d="M18.9442 4.02282C16.8666 1.94524 14.1042 0.801025 11.166 0.801025C8.22781 0.801025 5.46548 1.94524 3.38781 4.02282C1.31023 6.10049 0.166016 8.86282 0.166016 11.801C0.166016 14.7392 1.31023 17.5016 3.38781 19.5792C5.46548 21.6568 8.22781 22.801 11.166 22.801C14.1042 22.801 16.8666 21.6568 18.9442 19.5792C21.0218 17.5016 22.166 14.7392 22.166 11.801C22.166 8.86282 21.0218 6.10049 18.9442 4.02282ZM20.855 11.1565H11.8105V2.112C16.6527 2.43092 20.5361 6.31439 20.855 11.1565ZM1.45508 11.801C1.45508 6.66299 5.46625 2.44492 10.5215 2.112V11.801C10.5215 11.972 10.5894 12.1359 10.7103 12.2568L17.5584 19.1049C15.8491 20.6027 13.6119 21.512 11.166 21.512C5.81138 21.512 1.45508 17.1557 1.45508 11.801ZM18.4699 18.1934L12.722 12.4456H20.855C20.7106 14.6389 19.835 16.6355 18.4699 18.1934Z" fill="white" fill-opacity="0.6"/>
</g>
<defs>
<clipPath id="clip0_63_4412">
<rect width="22" height="22" fill="white" transform="translate(0.166016 0.801025)"/>
</clipPath>
</defs>
</svg>
