<svg width="20" height="21" viewBox="0 0 20 21" fill="none" xmlns="http://www.w3.org/2000/svg">
<circle cx="9.94813" cy="10.2982" r="9.46278" fill="#3D8AFF"/>
<path d="M8.76674 12.5925V12.4355C8.76982 11.8969 8.81752 11.4676 8.90985 11.1475C9.00526 10.8275 9.14375 10.5689 9.32534 10.372C9.50692 10.175 9.72543 9.99649 9.98088 9.83645C10.1717 9.71334 10.3425 9.58562 10.4933 9.45328C10.6441 9.32094 10.7641 9.17475 10.8534 9.01471C10.9426 8.8516 10.9873 8.67002 10.9873 8.46997C10.9873 8.25761 10.9365 8.07141 10.8349 7.91138C10.7334 7.75134 10.5964 7.62823 10.4241 7.54206C10.2548 7.45588 10.067 7.4128 9.86085 7.4128C9.6608 7.4128 9.47152 7.45742 9.29302 7.54667C9.11452 7.63285 8.96833 7.76211 8.85445 7.93446C8.74058 8.10373 8.67903 8.31455 8.6698 8.56692H6.78627C6.80166 7.95139 6.94939 7.44357 7.22945 7.04348C7.50952 6.64031 7.88038 6.34024 8.34203 6.14327C8.80367 5.94322 9.31302 5.84319 9.87008 5.84319C10.4825 5.84319 11.0242 5.94476 11.4951 6.14788C11.966 6.34793 12.3353 6.63877 12.603 7.0204C12.8708 7.40203 13.0047 7.86213 13.0047 8.40072C13.0047 8.76081 12.9447 9.08088 12.8246 9.36095C12.7077 9.63794 12.543 9.88415 12.3307 10.0996C12.1183 10.3119 11.8675 10.5043 11.5782 10.6766C11.335 10.8213 11.135 10.9721 10.978 11.1291C10.8242 11.286 10.7087 11.4676 10.6318 11.6738C10.5579 11.88 10.5195 12.1339 10.5164 12.4355V12.5925H8.76674ZM9.6808 15.547C9.37304 15.547 9.1099 15.4393 8.89139 15.2239C8.67595 15.0054 8.56977 14.7438 8.57285 14.4391C8.56977 14.1375 8.67595 13.8789 8.89139 13.6635C9.1099 13.4481 9.37304 13.3404 9.6808 13.3404C9.97318 13.3404 10.2302 13.4481 10.4518 13.6635C10.6733 13.8789 10.7857 14.1375 10.7888 14.4391C10.7857 14.6422 10.7318 14.8284 10.6272 14.9977C10.5256 15.1639 10.3917 15.2977 10.2255 15.3993C10.0594 15.4978 9.87777 15.547 9.6808 15.547Z" fill="#081E5A"/>
</svg>
