<svg width="19" height="21" viewBox="0 0 19 21" fill="none" xmlns="http://www.w3.org/2000/svg">
<circle cx="9.48768" cy="10.2006" r="9.46278" fill="#3D8AFF"/>
<path d="M8.3058 12.4948V12.3379C8.30888 11.7993 8.35659 11.3699 8.44891 11.0499C8.54432 10.7298 8.68282 10.4713 8.8644 10.2743C9.04598 10.0773 9.26449 9.89883 9.51994 9.73879C9.71075 9.61569 9.88156 9.48796 10.0324 9.35562C10.1832 9.22328 10.3032 9.0771 10.3925 8.91706C10.4817 8.75394 10.5263 8.57236 10.5263 8.37231C10.5263 8.15996 10.4755 7.97376 10.374 7.81372C10.2724 7.65368 10.1355 7.53058 9.96312 7.4444C9.79385 7.35823 9.60611 7.31514 9.39991 7.31514C9.19986 7.31514 9.01059 7.35977 8.83208 7.44902C8.65358 7.53519 8.50739 7.66445 8.39352 7.8368C8.27964 8.00607 8.21809 8.21689 8.20886 8.46926H6.32534C6.34072 7.85373 6.48845 7.34592 6.76852 6.94582C7.04858 6.54265 7.41944 6.24258 7.88109 6.04561C8.34274 5.84556 8.85209 5.74554 9.40914 5.74554C10.0216 5.74554 10.5633 5.8471 11.0341 6.05023C11.505 6.25027 11.8743 6.54111 12.1421 6.92274C12.4099 7.30437 12.5437 7.76448 12.5437 8.30307C12.5437 8.66315 12.4837 8.98323 12.3637 9.26329C12.2467 9.54028 12.0821 9.7865 11.8697 10.0019C11.6574 10.2143 11.4065 10.4066 11.1172 10.579C10.8741 10.7236 10.6741 10.8744 10.5171 11.0314C10.3632 11.1884 10.2478 11.3699 10.1709 11.5761C10.097 11.7824 10.0585 12.0363 10.0554 12.3379V12.4948H8.3058ZM9.21987 15.4494C8.9121 15.4494 8.64896 15.3417 8.43045 15.1262C8.21501 14.9077 8.10883 14.6461 8.11191 14.3414C8.10883 14.0398 8.21501 13.7813 8.43045 13.5659C8.64896 13.3504 8.9121 13.2427 9.21987 13.2427C9.51224 13.2427 9.76923 13.3504 9.99082 13.5659C10.2124 13.7813 10.3247 14.0398 10.3278 14.3414C10.3247 14.5445 10.2709 14.7307 10.1662 14.9C10.0647 15.0662 9.9308 15.2001 9.76461 15.3016C9.59842 15.4001 9.41684 15.4494 9.21987 15.4494Z" fill="#081E5A"/>
</svg>
