<svg width="23" height="23" viewBox="0 0 23 23" fill="none" xmlns="http://www.w3.org/2000/svg">
<g clip-path="url(#clip0_2_200)">
<path d="M20.42 4.22833C20.3014 2.69797 19.0192 1.48877 17.459 1.48877H3.55884C1.92065 1.48877 0.587891 2.82153 0.587891 4.45971V18.2056C0.587891 19.8438 1.92065 21.1765 3.55884 21.1765H19.617C21.2552 21.1765 22.5879 19.8438 22.5879 18.2056V7.08807C22.5879 5.7282 21.6692 4.57964 20.42 4.22833ZM3.55884 2.87666H17.459C18.2143 2.87666 18.8473 3.40843 19.0043 4.11717H3.55884C2.97718 4.11717 2.43447 4.28584 1.97578 4.57591V4.45971C1.97578 3.58682 2.68594 2.87666 3.55884 2.87666ZM19.6169 19.7887H3.55884C2.68594 19.7887 1.97578 19.0785 1.97578 18.2056V7.08807C1.97578 6.21517 2.68594 5.50501 3.55884 5.50501H19.617C20.4899 5.50501 21.2 6.21517 21.2 7.08807V9.50984H16.775C15.0215 9.50984 13.5949 10.9365 13.5949 12.69C13.5949 14.4435 15.0216 15.8701 16.775 15.8701H21.2V18.2056C21.2 19.0785 20.4898 19.7887 19.6169 19.7887ZM21.2 14.4822H16.775C15.7868 14.4822 14.9828 13.6782 14.9828 12.69C14.9828 11.7017 15.7868 10.8977 16.775 10.8977H21.2V14.4822Z" fill="white"/>
<path d="M17.0325 13.4651C17.4316 13.4651 17.755 13.1416 17.755 12.7426C17.755 12.3436 17.4316 12.0201 17.0325 12.0201C16.6335 12.0201 16.3101 12.3436 16.3101 12.7426C16.3101 13.1416 16.6335 13.4651 17.0325 13.4651Z" fill="white"/>
</g>
<defs>
<clipPath id="clip0_2_200">
<rect width="22" height="22" fill="white" transform="translate(0.587891 0.332642)"/>
</clipPath>
</defs>
</svg>
