<svg width="23" height="23" viewBox="0 0 23 23" fill="none" xmlns="http://www.w3.org/2000/svg">
<g clip-path="url(#clip0_2_204)">
<path d="M20.5182 4.695C20.3996 3.16464 19.1173 1.95544 17.5571 1.95544H3.65698C2.0188 1.95544 0.686035 3.28821 0.686035 4.92639V18.6723C0.686035 20.3105 2.0188 21.6432 3.65698 21.6432H19.7151C21.3533 21.6432 22.6861 20.3105 22.6861 18.6723V7.55474C22.686 6.19487 21.7673 5.04631 20.5182 4.695ZM3.65698 3.34333H17.5572C18.3125 3.34333 18.9454 3.87511 19.1025 4.58384H3.65698C3.07533 4.58384 2.53262 4.75251 2.07392 5.04258V4.92639C2.07392 4.0535 2.78409 3.34333 3.65698 3.34333ZM19.7151 20.2553H3.65698C2.78409 20.2553 2.07392 19.5452 2.07392 18.6723V7.55474C2.07392 6.68185 2.78409 5.97168 3.65698 5.97168H19.7151C20.588 5.97168 21.2982 6.68185 21.2982 7.55474V9.97652H16.8732C15.1197 9.97652 13.6931 11.4031 13.6931 13.1566C13.6931 14.9102 15.1197 16.3368 16.8732 16.3368H21.2981V18.6723C21.2981 19.5452 20.588 20.2553 19.7151 20.2553ZM21.2981 14.9489H16.8732C15.885 14.9489 15.081 14.1449 15.081 13.1566C15.081 12.1684 15.885 11.3644 16.8732 11.3644H21.2981V14.9489Z" fill="#C605CA"/>
<path d="M17.1307 13.9318C17.5297 13.9318 17.8532 13.6083 17.8532 13.2093C17.8532 12.8103 17.5297 12.4868 17.1307 12.4868C16.7317 12.4868 16.4082 12.8103 16.4082 13.2093C16.4082 13.6083 16.7317 13.9318 17.1307 13.9318Z" fill="#C605CA"/>
</g>
<defs>
<clipPath id="clip0_2_204">
<rect width="22" height="22" fill="white" transform="translate(0.686035 0.799316)"/>
</clipPath>
</defs>
</svg>
